<svg width="120" height="120" viewBox="0 0 120 120" fill="none" xmlns="http://www.w3.org/2000/svg">
<path fill-rule="evenodd" clip-rule="evenodd" d="M8.43532 8.43532C0 16.8706 0 30.4471 0 57.6V62.4C0 89.5529 0 103.129 8.43532 111.565C16.8706 120 30.4471 120 57.6 120H62.4C89.5529 120 103.129 120 111.565 111.565C120 103.129 120 89.5529 120 62.4V57.6C120 30.4471 120 16.8706 111.565 8.43532C103.129 0 89.5529 0 62.4 0H57.6C30.4471 0 16.8706 0 8.43532 8.43532ZM20.2499 36.4951C20.8999 67.6951 36.4997 86.4451 63.8497 86.4451H65.4V68.595C75.45 69.595 83.0495 76.9451 86.0995 86.4451H100.3C96.3999 72.2451 86.1494 64.395 79.7494 61.395C86.1494 57.695 95.1495 48.6951 97.2995 36.4951H84.3991C81.5991 46.3951 73.3 55.395 65.4 56.245V36.4951H52.4996V71.095C44.4996 69.095 34.3998 59.3951 33.9498 36.4951H20.2499Z" fill="white"/>
</svg>
